<svg xmlns="http://www.w3.org/2000/svg" xmlns:xlink="http://www.w3.org/1999/xlink" width="1080" zoomAndPan="magnify" viewBox="0 0 810 809.999993" height="1080" preserveAspectRatio="xMidYMid meet" version="1.0"><path fill="#e3fffc" d="M 342.648438 92.339844 L 346.34375 92.3125 C 349.667969 92.292969 352.992188 92.289062 356.3125 92.292969 C 359.097656 92.289062 361.882812 92.285156 364.664062 92.277344 C 371.234375 92.257812 377.804688 92.253906 384.375 92.261719 C 391.136719 92.269531 397.894531 92.246094 404.652344 92.210938 C 410.476562 92.183594 416.300781 92.171875 422.121094 92.175781 C 425.589844 92.175781 429.058594 92.171875 432.527344 92.148438 C 436.398438 92.121094 440.269531 92.136719 444.140625 92.152344 L 447.585938 92.113281 C 452.828125 92.167969 456.820312 92.492188 461.476562 95.019531 C 464.453125 96.894531 466.925781 98.898438 469.222656 101.585938 L 470.992188 103.59375 C 473.976562 107.804688 476.25 111.332031 476.871094 116.5 C 476.992188 119.996094 476.996094 123.476562 476.957031 126.972656 C 476.957031 128.3125 476.957031 129.652344 476.957031 130.992188 C 476.960938 134.609375 476.9375 138.226562 476.910156 141.84375 C 476.886719 145.632812 476.886719 149.417969 476.878906 153.207031 C 476.867188 160.371094 476.835938 167.535156 476.800781 174.699219 C 476.757812 182.855469 476.730469 191.015625 476.714844 199.175781 C 476.675781 215.949219 476.609375 232.726562 476.527344 249.5 L 474.976562 248.332031 L 472.929688 246.792969 L 470.90625 245.269531 C 459.445312 236.773438 447.304688 229.910156 432.964844 227.867188 C 418.566406 226.320312 404.675781 227.203125 391.261719 232.914062 C 384.054688 236.199219 377.894531 240.417969 372.015625 245.703125 L 370.257812 247.191406 C 361.605469 255.054688 355.089844 267.03125 351.425781 278.019531 C 345.78125 295.671875 344.265625 313.835938 348.238281 332.097656 C 353.101562 352.140625 362.980469 369.390625 375.816406 385.363281 L 377.972656 388.128906 C 389.074219 402.113281 401.902344 415.605469 415.484375 427.207031 C 430.472656 440.269531 445.328125 454.191406 457.523438 469.921875 C 458.90625 471.566406 460.292969 473.210938 461.679688 474.851562 C 467.085938 481.433594 471.78125 488.507812 476.527344 495.574219 C 483.601562 491.179688 489.929688 486.007812 496.351562 480.734375 C 499.941406 477.796875 503.566406 474.90625 507.226562 472.058594 C 525.335938 457.890625 542.558594 442.882812 558.886719 426.691406 L 561.417969 424.199219 C 576.125 409.511719 588.644531 392.457031 598.136719 373.964844 L 599.0625 372.179688 C 608.085938 354.617188 611.246094 337.535156 610.652344 317.851562 C 610.195312 310.140625 607.5625 303.867188 603.660156 297.242188 C 597.683594 288.488281 590.171875 281.675781 580.71875 276.878906 C 571.042969 272.613281 560.164062 271.511719 549.683594 272.304688 C 537.742188 273.640625 527.667969 277.820312 517.707031 284.429688 C 513.023438 287.964844 508.761719 292.015625 504.433594 295.96875 C 501.601562 298.464844 498.65625 300.597656 495.527344 302.707031 C 494.742188 292.015625 497.429688 282.582031 502 272.957031 C 508.144531 261.398438 517.785156 250.722656 528.75 243.503906 C 543.875 235.085938 560.339844 229.867188 577.726562 230.113281 C 590.816406 230.613281 602.75 234.414062 613.933594 241.1875 C 619.277344 244.730469 623.910156 248.878906 628.539062 253.300781 L 630.277344 254.824219 C 639.632812 263.347656 646.382812 275.671875 650.390625 287.503906 C 652.839844 295.863281 654.800781 304.433594 655.140625 313.15625 L 655.257812 315.484375 C 655.734375 334.246094 651.179688 353.023438 643.742188 370.164062 L 642.960938 371.976562 C 633.152344 394.503906 618.972656 415.023438 602.414062 433.117188 C 600.894531 434.78125 599.378906 436.449219 597.875 438.125 C 590.761719 445.996094 583.328125 453.519531 575.820312 461.011719 C 573.722656 463.105469 571.628906 465.199219 569.535156 467.300781 L 565.464844 471.367188 L 563.605469 473.230469 C 559.96875 476.84375 556.207031 480.320312 552.320312 483.660156 C 549.859375 485.792969 547.492188 488.011719 545.109375 490.230469 C 540.699219 494.304688 536.15625 498.167969 531.476562 501.933594 C 528.539062 504.324219 525.660156 506.773438 522.785156 509.230469 C 517.988281 513.320312 513.082031 517.234375 508.105469 521.101562 C 504.242188 524.128906 500.445312 527.238281 496.714844 530.429688 C 492.960938 533.628906 489.199219 536.816406 485.375 539.933594 L 483.105469 541.785156 L 481.277344 543.078125 L 479.375 543.078125 C 478.667969 546.890625 478.273438 550.734375 478.191406 554.613281 L 478.097656 557.933594 C 478.039062 560.207031 477.984375 562.484375 477.933594 564.757812 C 477.664062 573.878906 477.132812 582.511719 472.363281 590.484375 C 469.585938 594.097656 466.105469 596.707031 462.273438 599.132812 L 460.046875 600.621094 C 454.851562 602.660156 449.871094 602.414062 444.335938 602.414062 L 440.59375 602.445312 C 437.21875 602.476562 433.847656 602.484375 430.472656 602.492188 C 428.359375 602.496094 426.246094 602.503906 424.132812 602.511719 C 416.746094 602.542969 409.359375 602.5625 401.96875 602.5625 C 395.109375 602.566406 388.25 602.605469 381.386719 602.660156 C 375.476562 602.703125 369.566406 602.726562 363.660156 602.726562 C 360.136719 602.726562 356.617188 602.738281 353.097656 602.773438 C 349.160156 602.816406 345.226562 602.800781 341.289062 602.785156 L 337.808594 602.84375 C 331.625 602.765625 327.382812 601.863281 321.96875 598.785156 C 317.921875 596.214844 315.117188 593.941406 312.515625 589.929688 L 310.757812 587.304688 L 309.308594 584.882812 L 308.285156 583.210938 C 307.121094 580.378906 307.160156 578.027344 307.144531 574.960938 L 307.128906 573.105469 C 307.113281 571.054688 307.109375 569.007812 307.105469 566.957031 L 307.078125 562.546875 C 307.050781 558.558594 307.039062 554.566406 307.027344 550.578125 C 307.011719 546.40625 306.984375 542.234375 306.960938 538.0625 C 306.917969 530.167969 306.882812 522.269531 306.851562 514.375 C 306.8125 505.382812 306.765625 496.390625 306.71875 487.402344 C 306.621094 468.90625 306.535156 450.414062 306.460938 431.917969 L 304.332031 431.902344 C 287.226562 431.769531 270.121094 431.609375 253.019531 431.421875 C 244.746094 431.332031 236.472656 431.25 228.203125 431.1875 C 220.988281 431.136719 213.777344 431.066406 206.566406 430.976562 C 202.746094 430.929688 198.929688 430.890625 195.113281 430.871094 C 191.515625 430.851562 187.917969 430.816406 184.324219 430.757812 C 183.007812 430.742188 181.691406 430.730469 180.375 430.730469 C 174.308594 430.726562 169.136719 430.664062 163.722656 427.71875 C 158.367188 424.285156 154.058594 420.109375 150.703125 414.699219 C 148.992188 410.066406 148.628906 405.539062 148.59375 400.632812 L 148.5625 397.28125 L 148.546875 393.648438 L 148.519531 389.785156 C 148.484375 384.851562 148.460938 379.914062 148.441406 374.980469 C 148.414062 368.195312 148.390625 361.414062 148.371094 354.632812 C 148.351562 345.984375 148.3125 337.332031 148.246094 328.683594 C 148.199219 322.585938 148.175781 316.492188 148.171875 310.394531 C 148.167969 306.761719 148.152344 303.125 148.113281 299.492188 C 148.078125 296.070312 148.070312 292.648438 148.082031 289.226562 C 148.082031 287.386719 148.054688 285.542969 148.027344 283.703125 C 148.0625 279.226562 148.175781 275.515625 149.980469 271.375 C 154.304688 264.035156 159.46875 259.40625 166.796875 255.203125 C 169.339844 253.929688 171.304688 254.117188 174.15625 254.101562 L 177.675781 254.074219 L 181.558594 254.058594 L 185.632812 254.027344 C 189.324219 254.003906 193.015625 253.980469 196.710938 253.964844 C 200.566406 253.941406 204.421875 253.917969 208.277344 253.890625 C 215.582031 253.84375 222.886719 253.800781 230.191406 253.761719 C 238.507812 253.710938 246.824219 253.660156 255.136719 253.609375 C 272.246094 253.5 289.351562 253.398438 306.460938 253.300781 L 306.453125 251.25 C 306.414062 234.757812 306.382812 218.261719 306.363281 201.765625 C 306.351562 193.789062 306.335938 185.8125 306.316406 177.835938 C 306.296875 170.878906 306.285156 163.925781 306.28125 156.96875 C 306.28125 153.289062 306.273438 149.609375 306.257812 145.929688 C 306.246094 142.457031 306.242188 138.988281 306.246094 135.515625 C 306.246094 133.648438 306.234375 131.78125 306.222656 129.914062 C 306.242188 122.324219 306.585938 115.0625 309.527344 107.984375 C 312.292969 103.433594 315.074219 99.953125 319.363281 96.777344 C 327.015625 92.8125 334.121094 92.316406 342.648438 92.339844 " fill-opacity="1" fill-rule="nonzero"/><path fill="#e3fffc" d="M 630.589844 506.558594 C 612.71875 532.644531 577.628906 565.816406 544.730469 587.730469 C 457.847656 645.597656 346.953125 671.289062 267.429688 651.96875 C 241.503906 645.671875 221.785156 635.238281 208.484375 620.785156 C 201.9375 613.671875 198.257812 607.707031 195.464844 599.675781 C 188.175781 578.710938 196.492188 550.71875 216.347656 529.386719 C 219.449219 526.058594 221.820312 523.175781 221.625 522.980469 C 220.859375 522.214844 206.800781 534.402344 198.523438 543.007812 C 184.347656 557.738281 174.398438 574.085938 170.28125 589.402344 C 167.71875 598.945312 167.175781 612.632812 169.027344 621.039062 C 175.742188 651.535156 205.882812 675.875 250.109375 686.523438 C 300.707031 698.703125 369.199219 694.199219 428.910156 674.769531 C 507.015625 649.351562 573.597656 603.355469 609.414062 550.074219 C 617.066406 538.695312 623.96875 526.210938 629.429688 513.882812 C 632.210938 507.601562 634.34375 502.316406 634.164062 502.136719 C 633.988281 501.960938 632.378906 503.949219 630.589844 506.558594 M 520.238281 660.035156 C 510.699219 665.996094 488.90625 676.429688 472.085938 683.085938 C 437.574219 696.734375 401.617188 705.753906 363.585938 710.292969 C 338.246094 713.320312 293.945312 713.300781 277.644531 710.253906 C 275.679688 709.886719 274.074219 709.855469 274.074219 710.1875 C 274.074219 710.859375 293.824219 715.363281 305.066406 717.257812 C 368.171875 727.878906 451.128906 708.480469 509.242188 669.511719 C 522.894531 660.359375 528.390625 656.253906 526.878906 656.347656 C 526.421875 656.378906 523.433594 658.035156 520.238281 660.035156 " fill-opacity="1" fill-rule="evenodd"/></svg>